{"title":"John Carter 2012 FULL CAM READ-NFO XviD - TAPE","uid":7097145,"size":2926391872,"categoryP":"video","categoryS":"movies","magnet":"?xt=urn:btih:292d7ba733542b5a90f3b4a900144a2f8bb62412&amp;dn=John+Carter+2012+FULL+CAM+READ-NFO+XviD+-+TAPE&amp;tr=udp%3A%2F%2Ftracker.openbittorrent.com%3A80&amp;tr=udp%3A%2F%2Fopen.demonii.com%3A1337&amp;tr=udp%3A%2F%2Ftracker.coppersurfer.tk%3A6969&amp;tr=udp%3A%2F%2Fexodus.desync.com%3A6969","seeders":0,"leechers":0,"uploader":"TvTeam","files":105,"time":1331590416,"description":". \n &lt;a href=&quot;\nhttp://www.torrenting.com&quot; rel=&quot;nofollow&quot; target=&quot;_NEW&quot;&gt;\nhttp://www.torrenting.com&lt;/a&gt;          :     Once &amp; For all ;)\n\n\n               www . Torrenting . Com \n\n(((((((((((((= Enjoy No RAR releases =))))))))))))))))))))\n\n\n...................................NFO:....................................\n\n.John Carter 2012 FULL CAM READNFO XviD - TAPE &lt;a href=&quot;\nhttp://www.imdb.com/title/tt0401729/&quot; rel=&quot;nofollow&quot; target=&quot;_NEW&quot;&gt;\nhttp://www.imdb.com/title/tt0401729/&lt;/a&gt;\n\nVideo\nID                               : 0\nFormat                           : MPEG-4 Visual\nFormat profile                   : Advanced Simple@L5\nFormat settings, BVOP            : 2\nFormat settings, QPel            : No\nFormat settings, GMC             : No warppoints\nFormat settings, Matrix          : Default (H.263)\nMuxing mode                      : Packed bitstream\nCodec ID                         : XVID\nCodec ID/Hint                    : XviD\nDuration                         : 2h 0mn\nBit rate                         : 1 485 Kbps\nWidth                            : 720 pixels\nHeight                           : 356 pixels\nDisplay aspect ratio             : 2.022\nFrame rate                       : 25.000 fps\nColor space                      : YUV\nChroma subsampling               : 4:2:0\nBit depth                        : 8 bits\nScan type                        : Progressive\nCompression mode                 : Lossy\nBits/(Pixel*Frame)               : 0.232\nStream size                      : 1.25 GiB (92%)\nWriting library                  : XviD 64\n\nAudio\nID                               : 1\nFormat                           : MPEG Audio\nFormat version                   : Version 1\nFormat profile                   : Layer 3\nMode                             : Joint stereo\nMode extension                   : MS Stereo\nCodec ID                         : 55\nCodec ID/Hint                    : MP3\nDuration                         : 2h 0mn\nBit rate mode                    : Constant\nBit rate                         : 128 Kbps\nChannel(s)                       : 2 channels\nSampling rate                    : 44.1 KHz\nCompression mode                 : Lossy\nStream size                      : 110 MiB (8%)\nAlignment                        : Split accross interleaves\nInterleave, duration             : 40 ms (1.00 video frame)\n\n\nSources - \n DeeP / own / who knows ... thanks :D\n\n\naudio is a mix of \ndecent line and good cam\nfirst 19 minutes are line, then rest is cam\nhardcoded subs in english for alien speak\n\n\n[img]http://i.imgur.com/dwiv6.png[/img]\n[img]http://i.imgur.com/UDlFD.png[/img]\n[img]http://i.imgur.com/mpRLS.png[/img]\n[img]http://i.imgur.com/Td3X8.png[/img]\n[img]http://i.imgur.com/Z4KYk.png[/img]\n[img]http://i.imgur.com/h1THT.png[/img]","torrent":{"xt":"urn:btih:292d7ba733542b5a90f3b4a900144a2f8bb62412","amp;dn":"John+Carter+2012+FULL+CAM+READ-NFO+XviD+-+TAPE","amp;tr":["udp%3A%2F%2Ftracker.openbittorrent.com%3A80","udp%3A%2F%2Fopen.demonii.com%3A1337","udp%3A%2F%2Ftracker.coppersurfer.tk%3A6969","udp%3A%2F%2Fexodus.desync.com%3A6969"],"infoHash":"292d7ba733542b5a90f3b4a900144a2f8bb62412","infoHashBuffer":{"type":"Buffer","data":[41,45,123,167,51,84,43,90,144,243,180,169,0,20,74,47,139,182,36,18]},"announce":[],"urlList":[]}}